<svg width="72" height="72" viewBox="0 0 72 72" fill="none" xmlns="http://www.w3.org/2000/svg">
<circle cx="36" cy="36" r="33.5" fill="#FFC108" stroke="#FFB108" stroke-width="5"/>
<path fill-rule="evenodd" clip-rule="evenodd" d="M33.7365 52.9954C36.1617 52.9954 43.7877 51.9471 44.8026 45.3635C45.4637 41.0747 44.3242 38.1826 43.4495 35.3456L43.4357 35.3456C43.0193 33.9038 42.6899 32.4625 42.6899 30.9298C42.6899 26.0761 44.0437 25.3431 44.9031 21.5335C45.7625 17.7239 40.6887 18.0046 38.2635 18.0046C35.8383 18.0046 28.2123 19.0529 27.1974 25.6365C26.5363 29.9253 27.6758 32.8174 28.5505 35.6544L28.5643 35.6544C28.9807 37.0962 29.3101 38.5375 29.3101 40.0702C29.3101 44.9239 27.9563 45.6569 27.0969 49.4665C26.2375 53.2761 31.3113 52.9954 33.7365 52.9954Z" fill="#FFE57F" stroke="#FFE57F" stroke-width="5" stroke-linejoin="round"/>
</svg>
