<svg width="54" height="108" viewBox="0 0 54 108" fill="none" xmlns="http://www.w3.org/2000/svg">
<path fill-rule="evenodd" clip-rule="evenodd" d="M29.0002 2.48267C28.9874 1.10202 27.8578 -0.00948217 26.4771 6.10672e-05C25.0964 0.00960431 23.9875 1.13658 24.0003 2.51723L24.088 11.9855C14.6584 13.7476 2.73131 18.3995 0.592449 29.7639C-1.19393 39.2555 1.40176 45.9629 3.85224 52.2951C4.12246 52.9933 4.39092 53.687 4.65155 54.3794L4.69303 54.3793C5.94233 57.9221 6.93051 61.4636 6.93051 65.2297C6.93051 72.8197 5.28548 76.3088 3.42472 80.2556C2.36169 82.5103 1.22825 84.9144 0.290889 88.3177C-2.12998 97.1073 11.1434 97.0354 18.7955 96.9939C19.2926 96.9912 19.766 96.9886 20.2098 96.9886C21.3989 96.9886 23.0047 96.9198 24.8727 96.7341L24.954 105.517C24.9668 106.898 26.0964 108.009 27.4771 108C28.8578 107.99 29.9667 106.863 29.9539 105.483L29.8663 96.0231C39.303 94.2676 51.2655 89.619 53.4079 78.2361C55.1943 68.7445 52.5986 62.0371 50.1481 55.7049C49.8779 55.0067 49.6094 54.313 49.3488 53.6206L49.3073 53.6207C48.058 50.0779 47.0698 46.5364 47.0698 42.7703C47.0698 35.1803 48.7149 31.6912 50.5756 27.7444C51.6387 25.4897 52.7721 23.0857 53.7095 19.6823C56.1303 10.8927 42.8569 10.9646 35.2048 11.0061C34.7078 11.0088 34.2344 11.0114 33.7906 11.0114C32.5917 11.0114 30.9692 11.0813 29.0815 11.2705L29.0002 2.48267Z" fill="url(#paint0_linear_53_127)"/>
<defs>
<linearGradient id="paint0_linear_53_127" x1="13" y1="36" x2="42.5" y2="92.5" gradientUnits="userSpaceOnUse">
<stop stop-color="#F7C136"/>
<stop offset="1" stop-color="#F7AB22"/>
</linearGradient>
</defs>
</svg>
